<svg width="38" height="42" viewBox="0 0 38 42" version="1.1" xmlns="http://www.w3.org/2000/svg" xmlns:xlink="http://www.w3.org/1999/xlink">
<title>if_flag_1055060</title>
<desc>Created using Figma</desc>
<g id="Canvas" transform="translate(129 109)">
<g id="if_flag_1055060">
<g id="Layer 1">
<g id="Group" opacity="0.2">
<g id="Group" opacity="0.2">
<g id="Group" opacity="0.2">
<g id="Vector" opacity="0.2">
<use xlink:href="#path0_fill" transform="translate(-110.398 -102.656)" fill="#231F20"/>
</g>
</g>
</g>
<g id="Group" opacity="0.2">
<g id="Vector" opacity="0.2">
<use xlink:href="#path1_fill" transform="translate(-123.833 -103)" fill="#231F20"/>
</g>
</g>
</g>
<g id="Group">
<g id="Group">
<g id="Group">
<g id="Vector">
<use xlink:href="#path0_fill" transform="translate(-110.398 -104.656)" fill="#76C2AF"/>
</g>
</g>
</g>
<g id="Group">
<g id="Vector">
<use xlink:href="#path1_fill" transform="translate(-123.833 -105)" fill="#C75C5C"/>
</g>
</g>
</g>
<g id="Group" opacity="0.2">
<g id="Vector" opacity="0.2">
<use xlink:href="#path2_fill" transform="translate(-112.833 -102)" fill="#231F20"/>
</g>
</g>
<g id="Group">
<g id="Vector">
<use xlink:href="#path3_fill" transform="translate(-111.833 -101)" fill="#C75C5C"/>
</g>
</g>
<g id="Group" opacity="0.2">
<g id="Vector" opacity="0.2">
<use xlink:href="#path4_fill" transform="translate(-127.833 -105)" fill="#231F20"/>
</g>
</g>
<g id="Group">
<g id="Vector">
<use xlink:href="#path4_fill" transform="translate(-127.833 -107)" fill="#E0995E"/>
</g>
</g>
<g id="Group" opacity="0.2">
<g id="Vector" opacity="0.2">
<use xlink:href="#path5_fill" transform="translate(-128.833 -107)" fill="#231F20"/>
</g>
</g>
<g id="Group">
<g id="Vector">
<use xlink:href="#path5_fill" transform="translate(-128.833 -109)" fill="#E0995E"/>
</g>
</g>
</g>
</g>
</g>
<defs>
<path id="path0_fill" d="M 5.174 3.656L 5.174 -1.37329e-07C 5.156 0.894 1.271 3.276 1.37329e-06 4.107C 0.457001 3.826 0.989 3.656 1.565 3.656L 5.174 3.656Z"/>
<path id="path1_fill" d="M 18.609 0.344C 18.614 0.129 18.394 0 17.858 0L 4 0L 3 0L 0 0L 0 3L 0 17L 0 20L 3 20L 4 20L 12 20L 12 7C 12 6.763 12.029 6.534 12.081 6.312C 12.231 5.674 12.582 5.114 13.066 4.706C 13.498 4.342 18.589 1.367 18.609 0.344Z"/>
<path id="path2_fill" d="M 18 1L 7.609 1L 7.609 0L 3 0C 1.343 0 0 1.343 0 3L 0 19L 0 20C 0 21.657 1.343 23 3 23L 18 23C 19.657 23 21 21.657 21 20L 21 4C 21 2.343 19.657 1 18 1Z"/>
<path id="path3_fill" d="M 17 0L 8 0L 3 0C 1.343 0 0 1.343 0 3L 0 16L 0 17C 0 18.657 1.343 20 3 20L 17 20C 18.657 20 20 18.657 20 17L 20 3C 20 1.343 18.657 0 17 0Z"/>
<path id="path4_fill" d="M 4 36C 4 37.105 3.105 38 2 38C 0.895 38 0 37.105 0 36L 0 2C 0 0.895 0.895 0 2 0C 3.105 0 4 0.895 4 2L 4 36Z"/>
<path id="path5_fill" d="M 3 6C 4.65685 6 6 4.65685 6 3C 6 1.34315 4.65685 0 3 0C 1.34315 0 0 1.34315 0 3C 0 4.65685 1.34315 6 3 6Z"/>
</defs>
</svg>
