<svg width="512" height="512" xmlns="http://www.w3.org/2000/svg" xmlns:xlink="http://www.w3.org/1999/xlink"><g transform="translate(405 -92)"><clipPath id="a" clip-rule="evenodd"><path d="M-405 92h512v512h-512V92z" fill="#FFF"/></clipPath><g clip-path="url(#a)"><path d="M-405 92h512v512h-512V92z" fill="#15294B"/><g filter="url(#filter0_i)"><use xlink:href="#path0_fill" transform="translate(-346 151)" fill="#FFF"/></g><g filter="url(#filter1_i)"><use xlink:href="#path1_fill" transform="translate(-315.564 254.362)" fill="#E0E0E0" fill-opacity=".28"/></g><g filter="url(#filter2_i)"><use xlink:href="#path2_fill" transform="translate(-36.386 248.058)" fill="#E0E0E0" fill-opacity=".28"/></g><g filter="url(#filter3_i)"><use xlink:href="#path3_fill" transform="translate(-131.847 447.084)" fill="#E0E0E0" fill-opacity=".28"/></g><g filter="url(#filter4_i)"><use xlink:href="#path4_fill" transform="translate(-10.27 395.751)" fill="#E0E0E0" fill-opacity=".28"/></g><g filter="url(#filter5_i)"><use xlink:href="#path5_fill" transform="translate(-150.759 158.001)" fill="#E0E0E0" fill-opacity=".28"/></g><g filter="url(#filter6_i)"><use xlink:href="#path6_fill" transform="translate(-285.845 356.126)" fill="#E0E0E0" fill-opacity=".28"/></g><g filter="url(#filter7_i)"><use xlink:href="#path7_fill" transform="translate(-165.168 267.87)" fill="#E0E0E0" fill-opacity=".28"/></g><g><g><g opacity=".2"><g opacity=".2"><g opacity=".2"><g opacity=".2"><use xlink:href="#path8_fill" transform="rotate(15 -528.937 -95.963)" fill="#231F20"/></g></g></g><g opacity=".2"><g opacity=".2"><use xlink:href="#path9_fill" transform="rotate(15 -515.26 -182.547)" fill="#231F20"/></g></g></g><g><g><g><g><use xlink:href="#path8_fill" transform="rotate(15 -515.914 -94.249)" fill="#76C2AF"/></g></g></g><g><g><use xlink:href="#path9_fill" transform="rotate(15 -502.238 -180.833)" fill="#C75C5C"/></g></g></g><g opacity=".2"><g opacity=".2"><use xlink:href="#path10_fill" transform="rotate(15 -531.134 -112.272)" fill="#231F20"/></g></g><g><g><use xlink:href="#path11_fill" transform="rotate(15 -538.498 -106.662)" fill="#C75C5C"/></g></g><g opacity=".2"><g opacity=".2"><use xlink:href="#path12_fill" transform="rotate(15 -498.832 -206.7)" fill="#231F20"/></g></g><g><g><use xlink:href="#path12_fill" transform="rotate(15 -485.81 -204.986)" fill="#E0995E"/></g></g><g opacity=".2"><g opacity=".2"><use xlink:href="#path13_fill" transform="rotate(15 -484.96 -211.452)" fill="#231F20"/></g></g><g><g><use xlink:href="#path13_fill" transform="rotate(15 -471.938 -209.738)" fill="#E0995E"/></g></g></g></g></g></g><defs><filter id="filter0_i" filterUnits="userSpaceOnUse" x="-396" y="101" width="444" height="444" color-interpolation-filters="sRGB"><feFlood flood-opacity="0" result="BackgroundImageFix"/><feBlend in="SourceGraphic" in2="BackgroundImageFix" result="shape"/><feColorMatrix in="SourceAlpha" values="0 0 0 0 0 0 0 0 0 0 0 0 0 0 0 0 0 0 255 0" result="hardAlpha"/><feOffset dx="-50" dy="-50"/><feGaussianBlur stdDeviation="25"/><feComposite in2="hardAlpha" operator="arithmetic" k2="-1" k3="1"/><feColorMatrix values="0 0 0 0 0 0 0 0 0 0 0 0 0 0 0 0 0 0 0.25 0"/><feBlend in2="shape" result="effect1_innerShadow"/></filter><filter id="filter1_i" filterUnits="userSpaceOnUse" x="-316" y="254" width="45" height="40" color-interpolation-filters="sRGB"><feFlood flood-opacity="0" result="BackgroundImageFix"/><feBlend in="SourceGraphic" in2="BackgroundImageFix" result="shape"/><feColorMatrix in="SourceAlpha" values="0 0 0 0 0 0 0 0 0 0 0 0 0 0 0 0 0 0 255 0" result="hardAlpha"/><feOffset dx="5" dy="5"/><feComposite in2="hardAlpha" operator="arithmetic" k2="-1" k3="1"/><feColorMatrix values="0 0 0 0 0 0 0 0 0 0 0 0 0 0 0 0 0 0 0.25 0"/><feBlend in2="shape" result="effect1_innerShadow"/></filter><filter id="filter2_i" filterUnits="userSpaceOnUse" x="-37" y="248" width="34" height="31" color-interpolation-filters="sRGB"><feFlood flood-opacity="0" result="BackgroundImageFix"/><feBlend in="SourceGraphic" in2="BackgroundImageFix" result="shape"/><feColorMatrix in="SourceAlpha" values="0 0 0 0 0 0 0 0 0 0 0 0 0 0 0 0 0 0 255 0" result="hardAlpha"/><feOffset dx="5" dy="5"/><feComposite in2="hardAlpha" operator="arithmetic" k2="-1" k3="1"/><feColorMatrix values="0 0 0 0 0 0 0 0 0 0 0 0 0 0 0 0 0 0 0.25 0"/><feBlend in2="shape" result="effect1_innerShadow"/></filter><filter id="filter3_i" filterUnits="userSpaceOnUse" x="-132" y="447" width="38" height="49" color-interpolation-filters="sRGB"><feFlood flood-opacity="0" result="BackgroundImageFix"/><feBlend in="SourceGraphic" in2="BackgroundImageFix" result="shape"/><feColorMatrix in="SourceAlpha" values="0 0 0 0 0 0 0 0 0 0 0 0 0 0 0 0 0 0 255 0" result="hardAlpha"/><feOffset dx="5" dy="5"/><feComposite in2="hardAlpha" operator="arithmetic" k2="-1" k3="1"/><feColorMatrix values="0 0 0 0 0 0 0 0 0 0 0 0 0 0 0 0 0 0 0.25 0"/><feBlend in2="shape" result="effect1_innerShadow"/></filter><filter id="filter4_i" filterUnits="userSpaceOnUse" x="-11" y="395" width="26" height="26" color-interpolation-filters="sRGB"><feFlood flood-opacity="0" result="BackgroundImageFix"/><feBlend in="SourceGraphic" in2="BackgroundImageFix" result="shape"/><feColorMatrix in="SourceAlpha" values="0 0 0 0 0 0 0 0 0 0 0 0 0 0 0 0 0 0 255 0" result="hardAlpha"/><feOffset dx="5" dy="5"/><feComposite in2="hardAlpha" operator="arithmetic" k2="-1" k3="1"/><feColorMatrix values="0 0 0 0 0 0 0 0 0 0 0 0 0 0 0 0 0 0 0.25 0"/><feBlend in2="shape" result="effect1_innerShadow"/></filter><filter id="filter5_i" filterUnits="userSpaceOnUse" x="-151" y="158" width="20" height="19" color-interpolation-filters="sRGB"><feFlood flood-opacity="0" result="BackgroundImageFix"/><feBlend in="SourceGraphic" in2="BackgroundImageFix" result="shape"/><feColorMatrix in="SourceAlpha" values="0 0 0 0 0 0 0 0 0 0 0 0 0 0 0 0 0 0 255 0" result="hardAlpha"/><feOffset dx="5" dy="5"/><feComposite in2="hardAlpha" operator="arithmetic" k2="-1" k3="1"/><feColorMatrix values="0 0 0 0 0 0 0 0 0 0 0 0 0 0 0 0 0 0 0.25 0"/><feBlend in2="shape" result="effect1_innerShadow"/></filter><filter id="filter6_i" filterUnits="userSpaceOnUse" x="-286" y="356" width="73" height="79" color-interpolation-filters="sRGB"><feFlood flood-opacity="0" result="BackgroundImageFix"/><feBlend in="SourceGraphic" in2="BackgroundImageFix" result="shape"/><feColorMatrix in="SourceAlpha" values="0 0 0 0 0 0 0 0 0 0 0 0 0 0 0 0 0 0 255 0" result="hardAlpha"/><feOffset dx="5" dy="5"/><feComposite in2="hardAlpha" operator="arithmetic" k2="-1" k3="1"/><feColorMatrix values="0 0 0 0 0 0 0 0 0 0 0 0 0 0 0 0 0 0 0.25 0"/><feBlend in2="shape" result="effect1_innerShadow"/></filter><filter id="filter7_i" filterUnits="userSpaceOnUse" x="-166" y="267" width="49" height="33" color-interpolation-filters="sRGB"><feFlood flood-opacity="0" result="BackgroundImageFix"/><feBlend in="SourceGraphic" in2="BackgroundImageFix" result="shape"/><feColorMatrix in="SourceAlpha" values="0 0 0 0 0 0 0 0 0 0 0 0 0 0 0 0 0 0 255 0" result="hardAlpha"/><feOffset dx="5" dy="5"/><feComposite in2="hardAlpha" operator="arithmetic" k2="-1" k3="1"/><feColorMatrix values="0 0 0 0 0 0 0 0 0 0 0 0 0 0 0 0 0 0 0.25 0"/><feBlend in2="shape" result="effect1_innerShadow"/></filter><path id="path0_fill" d="M394 197c0 108.8-88.2 197-197 197S0 305.8 0 197 88.2 0 197 0s197 88.2 197 197z"/><path id="path1_fill" d="M44.128 19.813c0 10.942-9.878 19.812-22.064 19.812S0 30.755 0 19.813C0 8.87 9.878 0 22.064 0s22.064 8.87 22.064 19.813z"/><path id="path2_fill" d="M32.42 15.31c0 8.455-7.257 15.31-16.21 15.31C7.258 30.62 0 23.764 0 15.31 0 6.854 7.258 0 16.21 0c8.953 0 16.21 6.854 16.21 15.31z"/><path id="path3_fill" d="M37.824 24.315c0 13.43-8.467 24.316-18.912 24.316C8.467 48.63 0 37.745 0 24.315 0 10.886 8.467 0 18.912 0c10.445 0 18.912 10.886 18.912 24.315z"/><path id="path4_fill" d="M24.315 12.158c0 6.714-5.443 12.157-12.157 12.157C5.443 24.315 0 18.872 0 12.158 0 5.443 5.443 0 12.158 0c6.714 0 12.157 5.443 12.157 12.158z"/><path id="path5_fill" d="M18.912 9.006c0 4.973-4.234 9.005-9.456 9.005C4.234 18.011 0 13.98 0 9.006 0 4.032 4.234 0 9.456 0c5.222 0 9.456 4.032 9.456 9.006z"/><path id="path6_fill" d="M72.046 39.175c0 21.636-16.128 39.175-36.023 39.175C16.128 78.35 0 60.81 0 39.175 0 17.539 16.128 0 36.023 0c19.895 0 36.023 17.54 36.023 39.175z"/><path id="path7_fill" d="M47.73 15.76c0 8.704-10.684 15.76-23.865 15.76C10.685 31.52 0 24.464 0 15.76S10.685 0 23.865 0C37.045 0 47.73 7.056 47.73 15.76z"/><path id="path8_fill" d="M8.81 6.267V0C8.78 1.533 2.164 5.616 0 7.04a5.04 5.04 0 0 1 2.665-.773H8.81z"/><path id="path9_fill" d="M31.686.59C31.694.22 31.32 0 30.406 0H0v34.286H20.432V12c0-.406.05-.799.138-1.18a5.144 5.144 0 0 1 1.677-2.753c.736-.624 9.404-5.724 9.439-7.477z"/><path id="path10_fill" d="M30.649 1.714H12.956V0H5.108C2.287 0 0 2.302 0 5.143v29.143c0 2.84 2.287 5.143 5.108 5.143h25.54c2.822 0 5.109-2.303 5.109-5.143V6.857c0-2.84-2.287-5.143-5.108-5.143z"/><path id="path11_fill" d="M28.946 0H5.108C2.287 0 0 2.302 0 5.143v24c0 2.84 2.287 5.143 5.108 5.143h23.838c2.821 0 5.108-2.303 5.108-5.143v-24c0-2.84-2.287-5.143-5.108-5.143z"/><path id="path12_fill" d="M6.81 61.714c0 1.895-1.523 3.429-3.405 3.429C1.524 65.143 0 63.609 0 61.714V3.43C0 1.534 1.524 0 3.405 0c1.882 0 3.406 1.534 3.406 3.429v58.285z"/><path id="path13_fill" d="M5.108 10.286c2.821 0 5.108-2.303 5.108-5.143S7.93 0 5.108 0C2.287 0 0 2.303 0 5.143s2.287 5.143 5.108 5.143z"/></defs></svg>