<svg width="1139" height="92" xmlns="http://www.w3.org/2000/svg" xmlns:xlink="http://www.w3.org/1999/xlink"><title>Component</title><desc>Created using Figma</desc><g><g><g transform="translate(779 94)"><use xlink:href="#path0_fill" transform="translate(-779 -94)" fill="#FFF"/></g><g filter="url(#filter0_i)" transform="translate(779 94)"><use xlink:href="#path1_fill" transform="translate(-442 -69)" fill="#E0E0E0" fill-opacity=".28"/></g><g filter="url(#filter1_i)" transform="translate(779 94)"><use xlink:href="#path2_fill" transform="translate(83 -55)" fill="#E0E0E0" fill-opacity=".28"/></g><g filter="url(#filter2_i)" transform="translate(779 94)"><use xlink:href="#path3_fill" transform="translate(-209 -54)" fill="#E0E0E0" fill-opacity=".28"/></g><g filter="url(#filter3_i)" transform="translate(779 94)"><use xlink:href="#path4_fill" transform="translate(-648 -25)" fill="#E0E0E0" fill-opacity=".28"/></g></g></g><defs><filter id="filter0_i" filterUnits="userSpaceOnUse" x="-442" y="-69" width="79" height="31" color-interpolation-filters="sRGB"><feFlood flood-opacity="0" result="BackgroundImageFix"/><feBlend in="SourceGraphic" in2="BackgroundImageFix" result="shape"/><feColorMatrix in="SourceAlpha" values="0 0 0 0 0 0 0 0 0 0 0 0 0 0 0 0 0 0 255 0" result="hardAlpha"/><feOffset dx="5" dy="5"/><feComposite in2="hardAlpha" operator="arithmetic" k2="-1" k3="1"/><feColorMatrix values="0 0 0 0 0 0 0 0 0 0 0 0 0 0 0 0 0 0 0.25 0"/><feBlend in2="shape" result="effect1_innerShadow"/></filter><filter id="filter1_i" filterUnits="userSpaceOnUse" x="83" y="-55" width="53" height="35" color-interpolation-filters="sRGB"><feFlood flood-opacity="0" result="BackgroundImageFix"/><feBlend in="SourceGraphic" in2="BackgroundImageFix" result="shape"/><feColorMatrix in="SourceAlpha" values="0 0 0 0 0 0 0 0 0 0 0 0 0 0 0 0 0 0 255 0" result="hardAlpha"/><feOffset dx="5" dy="5"/><feComposite in2="hardAlpha" operator="arithmetic" k2="-1" k3="1"/><feColorMatrix values="0 0 0 0 0 0 0 0 0 0 0 0 0 0 0 0 0 0 0.25 0"/><feBlend in2="shape" result="effect1_innerShadow"/></filter><filter id="filter2_i" filterUnits="userSpaceOnUse" x="-209" y="-54" width="108" height="46" color-interpolation-filters="sRGB"><feFlood flood-opacity="0" result="BackgroundImageFix"/><feBlend in="SourceGraphic" in2="BackgroundImageFix" result="shape"/><feColorMatrix in="SourceAlpha" values="0 0 0 0 0 0 0 0 0 0 0 0 0 0 0 0 0 0 255 0" result="hardAlpha"/><feOffset dx="5" dy="5"/><feComposite in2="hardAlpha" operator="arithmetic" k2="-1" k3="1"/><feColorMatrix values="0 0 0 0 0 0 0 0 0 0 0 0 0 0 0 0 0 0 0.25 0"/><feBlend in2="shape" result="effect1_innerShadow"/></filter><filter id="filter3_i" filterUnits="userSpaceOnUse" x="-648" y="-25" width="26" height="17" color-interpolation-filters="sRGB"><feFlood flood-opacity="0" result="BackgroundImageFix"/><feBlend in="SourceGraphic" in2="BackgroundImageFix" result="shape"/><feColorMatrix in="SourceAlpha" values="0 0 0 0 0 0 0 0 0 0 0 0 0 0 0 0 0 0 255 0" result="hardAlpha"/><feOffset dx="5" dy="5"/><feComposite in2="hardAlpha" operator="arithmetic" k2="-1" k3="1"/><feColorMatrix values="0 0 0 0 0 0 0 0 0 0 0 0 0 0 0 0 0 0 0.25 0"/><feBlend in2="shape" result="effect1_innerShadow"/></filter><path id="path0_fill" d="M 1139 91.5L 576 91.5L 0 91.5C 0 91.5 261.474 0 576 0C 890.526 0 1139 91.5 1139 91.5Z"/><path id="path1_fill" d="M 79 15.5C 79 24.0604 61.3152 31 39.5 31C 17.6848 31 0 24.0604 0 15.5C 0 6.93959 17.6848 0 39.5 0C 61.3152 0 79 6.93959 79 15.5Z"/><path id="path2_fill" d="M 53 17.5C 53 27.165 41.1355 35 26.5 35C 11.8645 35 0 27.165 0 17.5C 0 7.83502 11.8645 0 26.5 0C 41.1355 0 53 7.83502 53 17.5Z"/><path id="path3_fill" d="M 108 23C 108 35.7025 83.8234 46 54 46C 24.1766 46 0 35.7025 0 23C 0 10.2975 24.1766 0 54 0C 83.8234 0 108 10.2975 108 23Z"/><path id="path4_fill" d="M 26 8.5C 26 13.1944 20.1797 17 13 17C 5.8203 17 0 13.1944 0 8.5C 0 3.80558 5.8203 0 13 0C 20.1797 0 26 3.80558 26 8.5Z"/></defs></svg>